<?xml version="1.0" standalone="no"?>
<!DOCTYPE svg PUBLIC "-//W3C//DTD SVG 20010904//EN"
 "http://www.w3.org/TR/2001/REC-SVG-20010904/DTD/svg10.dtd">
<svg version="1.0" xmlns="http://www.w3.org/2000/svg"
 width="595.000000pt" height="842.000000pt" viewBox="0 0 595.000000 842.000000"
 preserveAspectRatio="xMidYMid meet">

<g transform="translate(0.000000,842.000000) scale(0.100000,-0.100000)"
fill="#000000" stroke="none">
<path d="M865 8039 c-11 -4 -34 -8 -51 -8 -17 -1 -34 -4 -38 -8 -4 -5 -11 -8
-15 -8 -18 0 -101 -51 -101 -62 0 -17 13 -16 58 3 84 38 129 42 148 15 8 -11
25 -21 37 -21 34 0 98 -25 163 -64 33 -19 72 -38 87 -41 15 -4 32 -17 38 -29
6 -11 25 -35 41 -53 17 -17 36 -42 42 -55 6 -13 25 -30 43 -39 17 -8 38 -23
48 -32 19 -20 40 -21 84 -6 30 11 35 9 62 -17 26 -26 28 -33 20 -64 -5 -19
-12 -52 -14 -72 -4 -31 -1 -38 15 -44 16 -5 17 -8 7 -14 -14 -9 10 -50 77
-135 18 -22 34 -51 36 -65 2 -20 10 -26 33 -28 17 -2 41 -7 55 -12 24 -9 130
-23 160 -21 8 0 42 3 75 7 66 7 75 3 186 -78 l51 -36 65 30 c54 26 72 29 110
24 26 -3 48 -8 51 -10 6 -7 -29 -98 -45 -117 -7 -8 -13 -27 -13 -40 0 -24 -22
-65 -45 -84 -6 -5 -15 -26 -19 -46 -6 -35 -5 -36 19 -31 17 3 25 11 25 24 0
11 14 36 30 55 21 23 30 44 30 68 0 20 8 43 18 53 9 10 27 38 39 62 20 39 21
46 8 56 -8 6 -15 16 -15 21 0 6 -26 18 -58 27 -56 15 -59 15 -126 -9 l-68 -25
-31 22 c-18 13 -62 37 -99 55 -60 29 -74 32 -122 27 -34 -4 -56 -3 -60 4 -5 8
-15 8 -32 2 -33 -13 -101 -13 -109 0 -3 6 -17 10 -30 10 -41 0 -73 20 -67 42
5 21 -42 78 -65 78 -18 0 -43 65 -43 114 0 24 7 63 16 89 l16 46 -38 46 c-41
48 -67 63 -87 47 -7 -5 -29 -15 -50 -22 -39 -12 -39 -12 -83 31 -24 24 -44 51
-44 61 0 10 -4 18 -9 18 -5 0 -24 23 -42 50 -18 28 -37 50 -44 50 -6 0 -60 25
-120 55 -61 30 -122 55 -137 55 -21 0 -28 5 -28 19 0 26 -21 40 -45 30z"/>
<path d="M2300 6743 c1 -20 59 -53 93 -53 32 0 51 -18 78 -74 28 -57 99 -122
151 -138 52 -15 64 -34 71 -104 5 -48 3 -65 -8 -74 -8 -7 -15 -24 -15 -38 l0
-25 26 26 c19 19 25 34 23 59 -2 18 0 39 5 46 9 16 -1 79 -18 111 -8 14 -33
30 -64 41 -74 26 -105 56 -141 132 l-31 67 -58 6 c-83 9 -104 14 -97 25 3 6 1
10 -4 10 -6 0 -11 -8 -11 -17z"/>
<path d="M2715 6220 c3 -5 24 -10 45 -10 21 0 42 5 45 10 4 6 -13 10 -45 10
-32 0 -49 -4 -45 -10z"/>
<path d="M2823 6206 c0 -10 13 -18 36 -22 54 -8 90 -24 105 -46 8 -10 35 -32
60 -49 50 -31 53 -46 20 -94 -8 -11 -14 -38 -14 -60 0 -37 -4 -43 -50 -74 -28
-19 -51 -41 -51 -50 -4 -56 25 -121 53 -121 17 0 19 4 14 28 -18 74 -17 91 5
103 44 23 69 62 62 97 -4 25 0 38 15 55 20 21 57 96 50 102 -2 1 -22 12 -45
25 -24 13 -43 27 -43 32 0 4 -24 24 -53 43 -38 25 -64 35 -88 35 -19 -1 -43 1
-55 5 -15 5 -21 2 -21 -9z"/>
<path d="M2960 5633 c-1 -30 -9 -176 -12 -212 -3 -31 1 -36 42 -58 57 -30 70
-48 70 -94 0 -43 46 -149 65 -149 18 0 25 -47 13 -82 -7 -21 -7 -37 1 -54 11
-26 15 -74 5 -74 -3 0 -14 5 -25 10 -26 15 -24 5 8 -30 31 -35 43 -38 43 -10
0 10 6 25 14 32 11 11 11 20 -1 60 -11 39 -11 56 -2 88 11 35 10 45 -7 80 -10
22 -27 42 -36 46 -19 6 -27 38 -32 121 -1 29 -6 56 -10 60 -4 5 -28 15 -54 24
-28 10 -47 22 -46 31 1 7 4 55 8 106 5 63 4 92 -3 92 -6 0 -11 7 -11 15 0 21
-30 19 -30 -2z"/>
<path d="M3620 4940 c-30 -11 -75 -20 -100 -20 -51 0 -84 -18 -135 -76 l-35
-39 -84 0 c-52 1 -89 5 -99 13 -21 18 -29 0 -11 -26 14 -20 24 -22 119 -22
l104 0 48 48 c43 44 54 50 105 56 32 3 74 15 93 26 20 11 45 20 56 20 14 0 19
5 17 17 -4 24 -17 24 -78 3z"/>
<path d="M3715 4899 c-4 -6 -4 -39 0 -75 6 -54 11 -67 33 -82 65 -45 91 -32
37 19 -27 26 -35 41 -35 69 0 65 -18 98 -35 69z"/>
<path d="M3822 4676 c2 -8 -31 -52 -72 -97 -139 -152 -143 -165 -107 -285 14
-46 14 -54 1 -73 -12 -17 -19 -19 -34 -11 -39 21 -60 12 -80 -32 -11 -24 -45
-70 -76 -102 l-57 -59 7 -80 c5 -57 3 -83 -6 -94 -7 -9 -12 -39 -11 -72 l2
-57 -42 -19 -42 -20 0 -69 c0 -69 1 -70 33 -89 26 -15 36 -17 41 -8 11 18 60
41 85 41 35 0 45 -17 35 -58 -5 -20 -9 -58 -9 -84 l0 -48 45 0 c25 0 62 -7 82
-15 22 -9 62 -15 99 -14 71 2 84 -3 77 -31 -3 -11 -1 -26 5 -33 6 -7 14 -32
18 -56 4 -23 13 -48 20 -55 15 -15 107 -29 142 -22 18 4 33 -5 66 -41 41 -43
66 -50 66 -18 0 7 7 15 15 19 8 3 15 12 15 20 0 29 98 36 122 9 9 -10 20 -31
25 -48 8 -25 16 -30 44 -33 19 -1 44 -8 57 -14 19 -10 25 -9 32 2 7 11 3 16
-15 20 -25 5 -77 48 -111 92 -11 14 -36 33 -55 40 -30 12 -38 12 -66 -1 -17
-9 -46 -31 -63 -49 -30 -32 -32 -33 -46 -15 -7 10 -14 14 -14 8 0 -5 -6 1 -13
15 -11 22 -19 25 -77 27 -103 3 -106 5 -104 66 6 122 -7 136 -130 141 -39 1
-97 10 -128 20 -62 19 -74 35 -63 85 3 16 2 32 -4 35 -6 4 -8 13 -4 22 7 18
-24 54 -46 54 -8 0 -32 -12 -52 -26 -44 -30 -75 -26 -90 13 -13 36 -11 73 5
73 42 0 103 89 84 123 -8 15 -5 25 15 46 33 36 38 55 20 80 -8 12 -17 40 -19
61 -5 37 -1 44 54 100 32 33 63 73 68 88 8 23 15 27 49 27 33 0 40 3 40 20 0
13 6 19 16 17 13 -2 17 7 17 46 1 27 -5 57 -12 67 -10 14 -11 25 -3 42 7 16 7
27 -3 38 -8 10 -9 15 -1 15 6 0 11 5 11 11 0 6 12 24 28 39 62 65 92 100 92
110 0 5 4 10 8 10 12 0 53 80 46 91 -9 15 -35 10 -32 -5z"/>
<path d="M4488 3053 c-30 -3 -38 -9 -38 -24 0 -16 7 -19 43 -19 37 0 50 -6 99
-50 54 -48 56 -51 60 -109 5 -68 14 -85 31 -56 28 47 26 62 -17 132 -38 60
-115 136 -134 131 -4 -1 -24 -3 -44 -5z"/>
<path d="M4656 2724 c-12 -31 -6 -84 12 -102 42 -44 62 -82 57 -105 -5 -19 1
-30 24 -50 17 -14 31 -29 32 -34 0 -4 16 -28 35 -53 19 -25 45 -67 58 -94 28
-56 104 -146 123 -146 8 0 13 -12 13 -29 0 -19 8 -34 24 -44 12 -9 30 -31 39
-49 9 -19 25 -42 37 -53 21 -19 54 -116 66 -195 13 -81 29 -106 71 -114 55 -9
65 -8 60 7 -2 6 0 21 5 31 10 17 7 18 -30 12 -35 -5 -43 -3 -52 13 -5 11 -10
31 -10 44 0 13 -9 58 -20 101 -17 68 -29 89 -100 181 -44 57 -80 109 -80 115
0 6 -18 33 -40 59 -22 26 -40 51 -40 55 0 4 -16 28 -36 52 -31 37 -34 44 -17
44 10 0 24 -5 29 -10 6 -6 30 -7 58 -4 36 5 46 11 44 23 -2 11 -16 17 -48 18
-119 5 -143 14 -154 58 -3 13 -15 27 -26 30 -13 4 -20 15 -20 31 0 26 -41 104
-72 138 -10 11 -18 32 -18 47 0 32 -15 46 -24 23z"/>
</g>
</svg>
