<?xml version="1.0" standalone="no"?>
<!DOCTYPE svg PUBLIC "-//W3C//DTD SVG 20010904//EN"
 "http://www.w3.org/TR/2001/REC-SVG-20010904/DTD/svg10.dtd">
<svg version="1.0" xmlns="http://www.w3.org/2000/svg"
 width="595.000000pt" height="842.000000pt" viewBox="0 0 595.000000 842.000000"
 preserveAspectRatio="xMidYMid meet">

<g transform="translate(0.000000,842.000000) scale(0.100000,-0.100000)"
fill="#000000" stroke="none">
<path d="M820 8033 c-19 -2 -39 -9 -44 -14 -6 -5 -16 -9 -23 -9 -7 0 -31 -11
-53 -25 -61 -39 -49 -63 15 -29 17 9 37 18 45 20 59 15 94 23 95 21 2 -18 27
-43 46 -45 45 -6 114 -33 169 -67 30 -18 68 -37 83 -40 15 -4 34 -19 41 -34 8
-14 26 -37 41 -51 15 -14 31 -35 36 -47 4 -12 23 -30 41 -39 18 -9 43 -25 55
-36 20 -19 26 -20 69 -9 46 12 48 11 76 -16 25 -26 27 -32 18 -63 -6 -19 -10
-52 -10 -73 0 -43 24 -107 39 -107 6 0 11 -6 11 -14 0 -8 6 -21 13 -28 32 -35
65 -87 69 -109 2 -18 10 -25 33 -27 17 -2 41 -7 55 -12 23 -8 142 -23 165 -21
146 15 133 19 257 -71 l51 -37 58 30 c60 30 83 34 138 23 32 -7 38 -21 22 -52
-32 -60 -51 -105 -51 -121 0 -10 -13 -36 -28 -57 -16 -22 -32 -51 -35 -67 -4
-15 -11 -27 -16 -27 -4 0 -6 -11 -4 -25 6 -27 61 -65 97 -65 31 0 51 -18 72
-65 25 -55 102 -128 152 -144 57 -19 68 -36 75 -107 5 -48 3 -65 -8 -74 -8 -7
-15 -24 -15 -38 l0 -25 26 26 c19 19 25 35 23 59 -1 18 2 41 6 52 5 11 1 39
-9 71 -16 51 -18 53 -74 74 -74 28 -108 59 -136 124 -30 67 -42 76 -105 82
-66 5 -90 13 -87 28 3 23 17 36 31 30 11 -4 15 2 15 20 0 15 12 38 30 55 22
23 30 40 30 66 0 21 7 44 18 54 9 10 27 37 39 61 18 38 19 46 7 58 -8 8 -14
18 -14 23 0 4 -10 10 -22 13 -13 3 -40 10 -61 15 -31 8 -49 6 -104 -14 -67
-25 -67 -25 -94 -5 -15 11 -57 36 -95 55 -62 31 -75 34 -125 29 -36 -3 -59 -2
-63 5 -5 8 -15 8 -32 2 -32 -12 -89 -13 -112 -1 -9 5 -35 13 -57 18 -34 7 -40
11 -37 32 4 27 -42 81 -70 81 -10 0 -18 7 -18 16 0 8 -5 25 -12 37 -15 28 -11
88 8 149 l15 47 -37 46 c-21 25 -45 47 -54 50 -9 3 -35 -4 -58 -15 -22 -11
-47 -20 -54 -20 -15 0 -83 66 -102 98 -33 58 -81 122 -92 122 -11 0 -119 50
-206 96 -14 8 -37 14 -51 14 -19 0 -26 6 -29 23 -3 24 -22 28 -88 20z"/>
<path d="M2681 6225 c3 -2 25 -6 50 -8 24 -2 55 -9 69 -15 14 -6 51 -16 82
-22 38 -8 64 -19 75 -34 10 -12 40 -37 66 -55 51 -34 54 -48 21 -96 -8 -11
-14 -38 -14 -60 0 -37 -4 -43 -50 -74 -44 -30 -50 -38 -50 -70 0 -20 7 -49 15
-65 9 -17 16 -54 15 -83 0 -29 0 -79 0 -110 -1 -32 -5 -73 -11 -91 -9 -28 -8
-37 8 -54 10 -11 32 -27 50 -34 39 -17 53 -41 53 -88 0 -40 48 -146 66 -146
17 0 23 -47 12 -87 -7 -24 -6 -39 1 -46 6 -6 11 -26 11 -45 0 -29 -3 -33 -17
-27 -37 15 -53 17 -53 6 0 -6 8 -11 18 -11 9 0 25 -12 36 -26 15 -22 16 -28 5
-35 -9 -6 -10 -12 -4 -16 6 -5 11 -15 13 -23 8 -35 24 -40 128 -40 l103 0 48
48 c42 43 54 50 102 55 55 7 111 26 111 39 0 16 53 8 66 -9 8 -11 13 -44 14
-80 0 -56 2 -63 29 -82 16 -12 39 -21 52 -21 22 0 21 2 -13 38 -29 30 -37 47
-41 91 -5 40 -13 61 -34 81 -29 29 -21 30 -143 -5 -30 -8 -63 -12 -73 -9 -22
7 -61 -17 -107 -67 -43 -47 -92 -60 -170 -44 l-55 11 2 39 c2 22 8 50 14 62
10 18 9 32 0 63 -9 30 -9 50 -1 82 10 35 9 47 -7 80 -10 21 -25 40 -35 43 -22
8 -35 50 -32 110 3 65 -5 76 -63 96 -28 9 -48 22 -47 30 0 8 4 56 8 107 5 63
3 92 -4 92 -7 0 -10 20 -9 53 1 28 -2 71 -6 94 -7 36 -5 42 15 53 45 24 70 62
63 98 -4 25 0 38 15 55 20 21 57 96 50 102 -2 1 -22 12 -45 25 -24 13 -43 27
-43 31 0 17 -106 77 -135 76 -16 0 -48 5 -70 11 -38 11 -163 17 -154 7z"/>
<path d="M3822 4676 c2 -8 -31 -52 -72 -97 -118 -130 -129 -146 -125 -201 2
-26 7 -52 10 -59 18 -28 22 -78 9 -98 -12 -17 -18 -18 -45 -8 -28 11 -33 10
-55 -16 -13 -15 -24 -34 -24 -42 0 -8 -26 -39 -57 -70 l-58 -57 0 -92 c0 -50
-4 -97 -9 -105 -5 -8 -9 -38 -8 -66 1 -50 1 -51 -41 -71 l-42 -20 -3 -66 c-3
-62 -1 -68 22 -83 13 -9 38 -18 56 -20 25 -3 32 0 40 20 7 19 17 25 39 25 26
0 57 -21 46 -31 -2 -3 -7 -39 -11 -81 l-6 -75 66 -5 c36 -3 73 -11 81 -18 7
-6 38 -11 67 -10 93 3 101 2 94 -16 -3 -9 1 -37 9 -62 8 -26 17 -59 20 -74 4
-23 12 -28 60 -38 31 -6 69 -9 85 -5 26 6 35 1 73 -41 42 -45 67 -52 67 -18 0
8 5 14 10 14 6 0 10 7 10 15 0 19 39 35 84 35 37 0 63 -23 75 -66 6 -25 13
-29 44 -30 19 0 42 -5 49 -11 7 -6 44 -14 81 -16 71 -6 76 -8 150 -76 31 -29
37 -42 37 -76 0 -46 9 -85 20 -85 10 0 30 48 30 73 0 33 -80 148 -123 177 -34
23 -45 25 -90 19 -61 -8 -102 -2 -118 17 -6 8 -17 14 -25 14 -7 0 -15 8 -19
18 -10 30 -51 69 -86 82 -28 10 -40 9 -71 -4 -21 -9 -37 -22 -35 -28 1 -7 -4
-12 -11 -13 -8 0 -20 -9 -28 -19 -14 -20 -14 -20 -29 0 -8 10 -15 15 -15 9 0
-5 -6 1 -13 15 -12 23 -19 25 -77 25 -36 0 -71 4 -77 8 -7 5 -16 6 -21 4 -4
-3 -7 33 -8 79 0 47 -5 89 -10 94 -13 13 -131 30 -165 23 -16 -3 -35 -1 -42 5
-7 6 -31 14 -53 17 -46 8 -66 37 -52 75 5 13 6 31 2 39 -4 9 -6 23 -5 33 2 16
-34 48 -55 48 -7 0 -26 -13 -42 -28 -28 -27 -33 -28 -61 -16 -25 11 -32 20
-37 56 -4 24 -8 45 -8 47 -1 2 9 5 21 6 26 2 63 32 63 52 0 7 5 13 11 13 7 0
9 14 7 38 -4 29 0 43 19 65 26 32 29 63 8 91 -26 34 -18 77 23 128 20 25 47
52 60 59 12 7 22 22 22 34 0 12 6 30 14 41 12 15 17 17 27 7 21 -21 47 -15 51
10 2 12 10 22 18 22 21 0 25 79 6 106 -11 16 -12 27 -4 45 8 17 8 27 -1 37
-11 15 -12 14 99 134 17 18 30 37 30 43 0 5 4 10 8 10 12 0 53 80 46 91 -9 15
-35 10 -32 -5z"/>
<path d="M4656 2717 c-11 -43 -6 -76 17 -99 37 -36 59 -78 54 -100 -4 -13 3
-29 21 -47 32 -31 142 -195 142 -211 0 -18 90 -118 111 -123 11 -3 19 -14 19
-24 0 -11 13 -37 30 -59 16 -21 30 -44 30 -50 0 -6 11 -21 25 -34 24 -23 57
-111 70 -186 3 -22 12 -58 20 -80 11 -34 18 -40 52 -46 52 -9 113 1 113 19 0
19 -49 35 -86 28 -40 -7 -50 5 -58 75 -14 117 -34 160 -117 265 -43 55 -79
108 -79 118 0 9 -4 17 -8 17 -8 0 -72 85 -72 96 0 3 -16 26 -36 50 -33 39 -34
44 -16 44 12 0 24 -4 27 -10 3 -5 26 -7 53 -3 56 7 54 6 47 26 -5 11 -22 15
-63 16 -31 1 -66 2 -77 2 -26 2 -65 38 -65 60 0 9 -9 19 -20 22 -14 4 -20 14
-20 34 0 18 -17 55 -45 96 -25 37 -45 78 -45 92 0 32 -16 41 -24 12z"/>
</g>
</svg>
